<?xml version="1.0" standalone="no"?>
<!DOCTYPE svg PUBLIC "-//W3C//DTD SVG 20010904//EN"
 "http://www.w3.org/TR/2001/REC-SVG-20010904/DTD/svg10.dtd">
<svg version="1.0" xmlns="http://www.w3.org/2000/svg"
 width="300.000000pt" height="205.000000pt" viewBox="0 0 300.000000 205.000000"
 preserveAspectRatio="xMidYMid meet">
<metadata>
Created by potrace 1.10, written by Peter Selinger 2001-2011
</metadata>
<g transform="translate(0.000000,205.000000) scale(0.100000,-0.100000)"
fill="#000000" stroke="none">
<path d="M856 2011 c-16 -11 -37 -33 -48 -49 -18 -28 -19 -55 -18 -463 1 -571
-25 -529 319 -529 132 0 221 4 221 9 0 6 -92 11 -224 13 -210 3 -226 4 -253
24 -52 39 -54 61 -51 509 3 444 2 435 59 469 24 14 93 16 632 16 l605 0 36
-40 36 -40 0 -415 c0 -435 -2 -460 -44 -495 -28 -23 -38 -24 -274 -27 -139 -2
-220 -7 -217 -13 4 -6 94 -10 222 -10 233 0 262 5 303 58 19 24 20 42 20 469
0 401 -2 448 -17 474 -36 60 -23 59 -680 59 -572 0 -599 -1 -627 -19z"/>
<path d="M888 1980 c-15 -8 -36 -27 -48 -42 -21 -27 -21 -35 -20 -435 1 -447
-1 -432 63 -472 31 -19 46 -20 249 -18 l216 2 1 -132 2 -133 -64 0 c-49 0 -68
-4 -80 -18 -34 -38 -8 -42 270 -42 l263 0 0 25 c0 28 -29 40 -85 33 l-35 -4 0
136 0 135 218 -2 c201 -2 220 -1 250 17 18 11 41 34 52 52 19 31 20 51 20 423
0 372 -1 392 -20 423 -11 18 -34 41 -52 52 -32 19 -49 20 -603 18 -484 -3
-574 -5 -597 -18z m1189 -63 l28 -27 0 -385 0 -385 -28 -27 -27 -28 -545 -3
c-611 -3 -603 -4 -631 63 -13 31 -14 93 -12 394 3 397 4 400 71 420 19 6 254
9 574 8 l543 -2 27 -28z m-475 -917 c-4 -26 -7 -29 -19 -18 -24 19 -171 21
-190 2 -18 -18 -18 -17 -27 19 l-6 27 123 0 124 0 -5 -30z m-32 -140 l0 -110
-85 0 -85 0 0 110 0 110 85 0 85 0 0 -110z m-182 -128 c2 -7 -1 -12 -7 -12 -6
0 -11 5 -11 11 0 5 -5 7 -12 3 -7 -4 -8 -3 -4 5 9 14 28 10 34 -7z m214 -4
c-6 -6 -16 -7 -22 -3 -9 6 -9 9 1 16 17 10 34 0 21 -13z"/>
<path d="M1555 1728 c-21 -51 -48 -115 -60 -143 -13 -27 -50 -117 -84 -200
-34 -82 -66 -158 -72 -169 -17 -30 -18 -54 -3 -67 20 -16 37 1 59 59 10 26 29
72 42 102 37 85 46 107 58 140 1 3 10 23 19 45 23 53 111 266 119 286 6 18
-10 39 -29 39 -6 0 -28 -42 -49 -92z m13 -48 c-7 -10 -14 -17 -17 -15 -4 4 18
35 25 35 2 0 -1 -9 -8 -20z m-165 -395 c-3 -9 -8 -14 -10 -11 -3 3 -2 9 2 15
9 16 15 13 8 -4z m-32 -68 c-10 -9 -11 -8 -5 6 3 10 9 15 12 12 3 -3 0 -11 -7
-18z"/>
<path d="M1159 1650 c-183 -137 -211 -163 -204 -180 3 -8 38 -37 77 -65 39
-27 76 -55 82 -60 6 -6 27 -22 46 -35 19 -13 37 -27 40 -30 6 -8 97 -70 102
-70 2 0 4 12 3 27 0 30 -18 48 -125 127 -36 26 -76 56 -90 66 -14 11 -34 26
-45 34 -18 14 -19 16 -4 28 9 7 60 47 114 88 53 41 106 82 117 91 13 10 19 24
16 45 l-3 30 -126 -96z m101 34 c0 -8 -19 -13 -24 -6 -3 5 1 9 9 9 8 0 15 -2
15 -3z m-75 -54 c-16 -16 -31 -27 -34 -24 -5 4 48 53 58 54 3 0 -8 -13 -24
-30z m-55 -38 c0 -4 -10 -13 -22 -21 -23 -14 -23 -14 -4 8 20 22 26 25 26 13z
m-57 -37 c-3 -9 -8 -14 -10 -11 -3 3 -2 9 2 15 9 16 15 13 8 -4z m-58 -55
c-17 -19 -17 -21 1 -41 19 -22 19 -22 -3 -8 -13 8 -23 18 -23 23 0 10 30 46
38 46 3 0 -3 -9 -13 -20z m130 -140 c10 -11 16 -20 13 -20 -3 0 -13 9 -23 20
-10 11 -16 20 -13 20 3 0 13 -9 23 -20z m65 -46 c0 -2 -9 0 -20 6 -11 6 -20
13 -20 16 0 2 9 0 20 -6 11 -6 20 -13 20 -16z"/>
<path d="M1660 1718 c0 -29 8 -38 56 -73 31 -22 62 -45 68 -50 6 -6 27 -22 46
-35 19 -13 44 -32 55 -42 11 -10 28 -24 39 -31 17 -12 10 -20 -85 -91 -57 -42
-117 -88 -134 -101 -16 -14 -33 -25 -37 -25 -5 0 -8 -16 -8 -36 0 -20 4 -34 8
-32 5 2 83 59 175 128 179 135 192 151 137 183 -16 10 -35 23 -42 30 -7 7 -67
53 -133 102 -66 50 -121 93 -123 98 -9 19 -22 4 -22 -25z m95 -57 c3 -5 2 -12
-3 -15 -5 -3 -9 1 -9 9 0 17 3 19 12 6z m165 -131 c0 -6 -9 -5 -20 2 -11 7
-20 16 -20 21 0 4 9 3 20 -3 11 -6 20 -15 20 -20z m45 -50 c-3 -6 1 -7 9 -4 9
3 16 1 16 -5 0 -6 -7 -11 -15 -11 -7 0 -19 -8 -24 -17 -6 -10 -11 -13 -11 -7
0 6 3 14 7 18 11 10 12 36 2 36 -5 0 -9 7 -9 16 0 14 1 14 16 0 8 -9 13 -20 9
-26z m-101 -104 c-3 -7 -17 -19 -32 -25 -27 -12 -27 -12 3 13 35 30 36 30 29
12z"/>
<path d="M2600 640 c0 -5 5 -10 10 -10 6 0 10 5 10 10 0 6 -4 10 -10 10 -5 0
-10 -4 -10 -10z"/>
<path d="M225 556 c-36 -16 -82 -67 -91 -102 -12 -49 1 -162 22 -191 50 -67
129 -90 207 -59 45 18 70 45 81 89 6 26 5 27 -29 27 -28 0 -35 -4 -35 -20 0
-25 -32 -58 -64 -66 -36 -9 -92 22 -110 61 -21 43 -20 128 0 171 21 43 66 68
107 60 38 -8 67 -33 67 -58 0 -14 8 -18 35 -18 40 0 40 -1 20 46 -25 61 -135
93 -210 60z"/>
<path d="M1715 556 c-36 -16 -82 -67 -91 -102 -12 -49 1 -162 22 -191 51 -67
128 -89 209 -59 35 14 48 26 64 60 12 23 21 45 21 49 0 4 -16 7 -35 7 -28 0
-35 -4 -35 -20 0 -25 -32 -58 -64 -66 -36 -9 -92 22 -110 61 -21 43 -20 128 1
172 34 73 132 82 163 16 12 -27 21 -33 48 -33 30 0 33 2 26 23 -25 81 -132
121 -219 83z"/>
<path d="M2449 504 c3 -52 1 -56 -15 -49 -42 17 -69 17 -100 0 -47 -25 -67
-74 -62 -147 6 -81 37 -113 105 -111 27 1 66 2 88 2 l40 1 0 180 0 180 -30 0
-30 0 4 -56z m21 -80 c0 -8 -5 -12 -10 -9 -6 4 -8 11 -5 16 9 14 15 11 15 -7z
m-46 -15 c23 -18 26 -28 26 -79 0 -54 -3 -60 -30 -80 -18 -13 -38 -19 -49 -15
-47 15 -55 142 -11 177 28 23 32 23 64 -3z m42 -176 c-10 -10 -19 5 -10 18 6
11 8 11 12 0 2 -7 1 -15 -2 -18z"/>
<path d="M596 463 c-3 -4 -24 -6 -46 -5 l-40 3 0 -131 0 -130 30 0 30 0 0 100
c0 94 1 100 24 115 13 8 31 13 40 9 12 -5 16 0 16 20 0 21 -5 26 -23 26 -13 0
-27 -3 -31 -7z"/>
<path d="M723 456 c-30 -14 -53 -42 -53 -65 0 -20 49 -11 74 14 30 30 57 32
79 7 33 -36 22 -52 -34 -52 -61 0 -105 -23 -118 -62 -22 -63 29 -115 101 -104
24 4 63 6 86 6 l44 -1 -4 110 c-3 97 -6 113 -25 132 -27 28 -105 35 -150 15z
m138 -119 c-10 -9 -11 -8 -5 6 3 10 9 15 12 12 3 -3 0 -11 -7 -18z m-21 -45
c0 -20 -8 -32 -29 -45 -37 -22 -54 -21 -75 2 -14 15 -15 24 -7 39 13 25 26 30
74 31 34 1 37 -1 37 -27z"/>
<path d="M2045 452 c-45 -28 -56 -46 -62 -105 -12 -119 75 -187 182 -143 43
18 65 61 65 126 0 64 -20 103 -64 124 -44 21 -84 20 -121 -2z m100 -47 c42
-41 32 -140 -16 -165 -79 -43 -125 120 -50 177 24 18 39 16 66 -12z"/>
<path d="M2624 454 c-16 -8 -38 -28 -47 -43 -21 -36 -22 -122 -2 -160 17 -34
70 -61 118 -61 40 0 96 35 108 68 8 20 5 22 -26 22 -23 0 -35 -5 -35 -14 0
-22 -54 -40 -79 -27 -23 13 -41 41 -41 66 0 15 12 17 95 13 93 -3 95 -3 95 20
0 96 -100 159 -186 116z m87 -37 c13 -10 39 -49 39 -59 0 -2 -29 -3 -65 -3
-73 0 -81 10 -40 50 27 28 42 30 66 12z m-108 -77 c3 -11 1 -18 -4 -14 -5 3
-9 12 -9 20 0 20 7 17 13 -6z"/>
<path d="M950 440 c0 -18 7 -20 75 -20 l76 0 -81 -92 c-44 -51 -80 -100 -80
-110 0 -16 11 -18 120 -18 113 0 120 1 120 20 0 18 -7 20 -80 20 l-81 0 75 86
c41 48 76 97 79 110 l4 24 -113 0 c-107 0 -114 -1 -114 -20z m180 -22 c0 -18
-2 -20 -9 -8 -6 8 -7 18 -5 22 9 14 14 9 14 -14z"/>
<path d="M1200 457 c0 -2 21 -57 46 -122 26 -66 46 -128 46 -139 -1 -27 -33
-58 -54 -53 -14 4 -18 -1 -18 -23 0 -26 1 -27 38 -20 62 11 45 -21 189 348 4
8 -6 12 -29 12 -34 0 -34 0 -64 -92 l-31 -93 -29 92 c-29 92 -29 93 -61 93
-18 0 -33 -1 -33 -3z m137 -206 c-10 -27 -12 -28 -24 -13 -17 23 -16 35 2 29
8 -4 17 -2 20 3 12 19 13 9 2 -19z"/>
</g>
</svg>
